<?xml version="1.0" encoding="UTF-8"?> <!-- Generator: Adobe Illustrator 23.1.0, SVG Export Plug-In . SVG Version: 6.00 Build 0) --> <svg xmlns="http://www.w3.org/2000/svg" xmlns:xlink="http://www.w3.org/1999/xlink" id="Layer_1" x="0px" y="0px" viewBox="0 0 123 17" style="enable-background:new 0 0 123 17;" xml:space="preserve"> <style type="text/css"> .st0{fill:#231F20;} </style> <path class="st0" d="M8.2,12.7c0.9,0,1.8-0.3,2.6-0.8c0.4-0.3,0.6-0.7,0.8-1.1c0.2-0.4,0.3-0.9,0.4-1.3h-1.9 c-0.2,1.1-0.9,1.7-1.9,1.7c-1.4,0-2.2-1-2.2-2.8V8.2c0-1.8,0.8-2.8,2.2-2.8c1.1,0,1.6,0.5,1.8,1.6h2c0-0.5-0.1-0.9-0.3-1.3 c-0.2-0.4-0.5-0.8-0.8-1C9.9,4,8.9,3.7,7.9,3.8S5.9,4.3,5.2,5C4.8,5.4,4.5,5.9,4.2,6.5C4,7,3.9,7.6,4,8.2v0.1c0,1.3,0.4,2.4,1.1,3.2 S6.8,12.7,8.2,12.7z M17.2,12.7c1.3,0,2.3-0.4,2.9-1.1c0.4-0.4,0.6-0.8,0.8-1.3c0.2-0.5,0.3-1,0.2-1.5V7.9h-3.8v1.4h1.9 c0,0.2,0,0.5-0.1,0.7c-0.1,0.2-0.2,0.4-0.4,0.6c-0.2,0.2-0.4,0.3-0.7,0.4c-0.3,0.1-0.5,0.1-0.8,0.1c-0.3,0-0.7,0-1-0.2 c-0.3-0.1-0.6-0.4-0.8-0.6c-0.4-0.6-0.6-1.3-0.6-2V8.2c0-1.8,0.8-2.9,2.3-2.9c1,0,1.6,0.5,1.8,1.5H21c0-0.5-0.2-0.9-0.4-1.3 c-0.2-0.4-0.5-0.7-0.9-1C19,4,18.1,3.8,17.2,3.8c-0.6,0-1.1,0.1-1.7,0.3c-0.5,0.2-1,0.5-1.4,0.9c-0.4,0.4-0.7,0.9-0.9,1.5 C13,7,12.9,7.6,12.9,8.2v0.1c0,0.6,0.1,1.1,0.3,1.7c0.2,0.5,0.5,1,0.9,1.5C14.8,12.2,15.8,12.7,17.2,12.7z M0,0v16.5h25.1V0H0z M23.6,14.9H1.5V1.5h22.2V14.9z"></path> <path class="st0" d="M34.4,10.7c-1.4,0-2.1-0.9-2.1-2.5V8.2c0-1.6,0.8-2.5,2.1-2.5c1,0,1.6,0.5,1.7,1.4H38c0-0.4-0.1-0.8-0.3-1.1 c-0.2-0.4-0.5-0.7-0.8-0.9C36,4.5,35,4.3,34.1,4.3c-1,0.1-1.9,0.4-2.6,1.1c-0.4,0.4-0.7,0.8-0.9,1.3c-0.2,0.5-0.3,1-0.3,1.5v0.1 c0,1.2,0.4,2.1,1,2.8c0.7,0.7,1.7,1.1,3,1.1c0.9,0,1.8-0.2,2.5-0.7c0.3-0.3,0.6-0.6,0.8-0.9c0.2-0.4,0.3-0.8,0.3-1.2h-1.8 C36.1,10.3,35.4,10.7,34.4,10.7z M41.2,4.5L38.6,12h1.7l0.6-1.7h2.9l0.6,1.7h1.9l-2.6-7.5H41.2z M41.2,9.1l1.1-3.3l1.1,3.2L41.2,9.1 z M50.3,4.5h-2.8V12h1.8V9.3h1c0.8,0,1.6-0.2,2.2-0.6c0.3-0.2,0.5-0.5,0.6-0.8c0.1-0.3,0.2-0.6,0.2-1v0C53.4,5.3,52.3,4.5,50.3,4.5z M51.7,6.9c0,0.8-0.5,1.1-1.4,1.1h-0.9V5.8h0.9C51.2,5.8,51.7,6.1,51.7,6.9L51.7,6.9z M55,12h1.9V4.5H55V12z M64.6,4.5h-6.2v1.3h2.2 V12h1.9V5.8h2.2L64.6,4.5z M67.1,4.5L64.5,12h1.7l0.6-1.7h2.9l0.6,1.7h1.9l-2.6-7.5L67.1,4.5z M67.1,9.1l1.1-3.3l1.1,3.3H67.1z M75.3,4.5h-1.8V12h5.2v-1.3h-3.3L75.3,4.5z M86.4,9.2h1.8c0,0.4-0.2,0.8-0.5,1.1c-0.2,0.2-0.4,0.3-0.7,0.4 c-0.3,0.1-0.5,0.1-0.8,0.1c-0.3,0-0.7,0-1-0.2c-0.3-0.1-0.6-0.3-0.8-0.6c-0.4-0.5-0.6-1.2-0.5-1.8V8.2c0-1.5,0.8-2.5,2.2-2.5 c1,0,1.6,0.4,1.8,1.3h1.8c0-0.4-0.1-0.8-0.4-1.1c-0.2-0.3-0.5-0.7-0.8-0.9c-0.8-0.5-1.8-0.7-2.8-0.6c-1,0.1-1.9,0.5-2.6,1.1 c-0.4,0.4-0.7,0.8-0.9,1.3c-0.2,0.5-0.3,1-0.3,1.5v0.1c0,0.5,0.1,1,0.2,1.5c0.2,0.5,0.5,0.9,0.8,1.3c0.7,0.7,1.7,1.1,3.1,1.1 c1,0,2-0.3,2.8-0.9c0.3-0.3,0.6-0.7,0.8-1.1C89.9,9.7,90,9.2,90,8.8V8h-3.7L86.4,9.2z M97,8.1c0.3-0.4,0.5-0.8,0.5-1.3v0 c0-0.3,0-0.7-0.2-1c-0.1-0.3-0.4-0.6-0.7-0.8c-0.5-0.4-1.3-0.6-2.3-0.6h-2.9V12h1.8V9.1h0.8L96,12h2l-2.1-3.2 C96.3,8.7,96.7,8.4,97,8.1L97,8.1z M95.7,6.8c0,0.7-0.5,1.1-1.4,1.1h-1V5.8h1C95.2,5.8,95.7,6,95.7,6.8L95.7,6.8z M102.9,4.3 c-0.6,0-1.1,0.1-1.6,0.3c-0.5,0.2-1,0.5-1.4,0.8c-0.4,0.4-0.7,0.8-0.9,1.3c-0.2,0.5-0.3,1-0.3,1.5v0.1c0,0.5,0.1,1,0.3,1.5 c0.2,0.5,0.5,0.9,0.9,1.3c0.4,0.4,0.9,0.6,1.4,0.8c0.5,0.2,1.1,0.3,1.6,0.2c0.6,0,1.1-0.1,1.6-0.2c0.5-0.2,1-0.5,1.4-0.8 c0.4-0.4,0.7-0.8,0.9-1.3c0.2-0.5,0.3-1,0.3-1.5V8.2c0-0.5-0.1-1-0.3-1.5c-0.2-0.5-0.5-0.9-0.9-1.3C105.1,4.7,104,4.3,102.9,4.3 L102.9,4.3z M105.1,8.2c0,0.7-0.2,1.3-0.6,1.8c-0.2,0.2-0.5,0.4-0.7,0.5c-0.3,0.1-0.6,0.2-0.9,0.2s-0.6-0.1-0.9-0.2 c-0.3-0.1-0.5-0.3-0.7-0.5c-0.4-0.5-0.7-1.2-0.6-1.8V8.2c0-0.7,0.2-1.3,0.6-1.8c0.2-0.2,0.5-0.4,0.8-0.5c0.3-0.1,0.6-0.2,0.9-0.2 c0.3,0,0.6,0.1,0.9,0.2c0.3,0.1,0.5,0.3,0.8,0.5C105,6.9,105.2,7.5,105.1,8.2L105.1,8.2z M113.4,8.9c0,1.4-0.5,1.8-1.6,1.8 c-1.1,0-1.5-0.5-1.5-1.8V4.5h-1.9v4.6c0,2,1.2,3.1,3.4,3.1c2.2,0,3.4-1.1,3.4-3.1V4.5h-1.8L113.4,8.9z M119.9,4.5h-2.8V12h1.8V9.3h1 c0.8,0,1.6-0.2,2.2-0.6c0.3-0.2,0.5-0.5,0.6-0.8c0.1-0.3,0.2-0.6,0.2-1v0C123,5.3,121.9,4.5,119.9,4.5z M121.2,6.9 c0,0.8-0.5,1.1-1.4,1.1h-0.9V5.8h0.9C120.7,5.8,121.2,6.1,121.2,6.9L121.2,6.9z"></path> </svg> 