<?xml version="1.0" encoding="UTF-8"?> <!-- Creator: CorelDRAW 2019 (64-Bit) --> <svg xmlns="http://www.w3.org/2000/svg" xmlns:xlink="http://www.w3.org/1999/xlink" xmlns:xodm="http://www.corel.com/coreldraw/odm/2003" xml:space="preserve" width="8.4667mm" height="6.4926mm" style="shape-rendering:geometricPrecision; text-rendering:geometricPrecision; image-rendering:optimizeQuality; fill-rule:evenodd; clip-rule:evenodd" viewBox="0 0 315.19 241.7"> <defs> <style type="text/css"> <![CDATA[ .fil1 {fill:#3380E8;fill-rule:nonzero} .fil0 {fill:white;fill-rule:nonzero} ]]> </style> </defs> <g id="Слой_x0020_1"> <metadata id="CorelCorpID_0Corel-Layer"></metadata> <g id="_2096718362240"> <polygon class="fil0" points="113.57,241.7 -0,128.14 40.08,88.05 113.57,161.54 275.11,0 315.19,40.08 "></polygon> <path class="fil1" d="M32.7 140.11c0.7,-0.71 1.38,-1.38 2.04,-2.04 0.66,-0.66 1.4,-1.4 2.22,-2.21l0.89 -0.89c-0.42,-0.18 -0.86,-0.39 -1.3,-0.63 -0.44,-0.24 -0.89,-0.54 -1.36,-0.89 -0.47,-0.35 -0.94,-0.77 -1.44,-1.26 -0.93,-0.93 -1.58,-1.9 -1.95,-2.89 -0.36,-0.99 -0.42,-1.99 -0.18,-2.98 0.25,-0.99 0.83,-1.94 1.75,-2.86 0.17,-0.17 0.33,-0.33 0.47,-0.48 0.15,-0.14 0.3,-0.29 0.47,-0.47l2.12 -2.12c0.62,-0.62 1.27,-1.27 1.94,-1.95l3.16 3.16c-0.77,0.77 -1.47,1.47 -2.1,2.11 -0.63,0.63 -1.29,1.29 -1.98,1.98l-0.52 0.53c-0.42,0.42 -0.71,0.86 -0.86,1.33 -0.15,0.47 -0.14,0.96 0.05,1.49 0.19,0.52 0.57,1.08 1.16,1.66 0.32,0.33 0.66,0.61 0.99,0.85 0.34,0.24 0.67,0.44 1,0.6 0.33,0.16 0.66,0.29 0.98,0.39l1.54 -1.54c0.88,-0.88 1.68,-1.68 2.39,-2.38 0.71,-0.71 1.44,-1.44 2.19,-2.19l3.16 3.16c-0.75,0.75 -1.48,1.48 -2.19,2.19 -0.71,0.71 -1.5,1.5 -2.38,2.39l-4.64 4.64c-0.86,0.86 -1.63,1.63 -2.32,2.32 -0.69,0.69 -1.4,1.4 -2.13,2.14l-3.16 -3.16z"></path> <path class="fil1" d="M40.66 148.06c0.73,-0.73 1.45,-1.45 2.14,-2.14 0.69,-0.69 1.46,-1.46 2.32,-2.32l4.64 -4.64c0.88,-0.88 1.68,-1.68 2.39,-2.39 0.71,-0.71 1.43,-1.44 2.18,-2.19l3.08 3.07c-0.75,0.76 -1.49,1.49 -2.2,2.2 -0.71,0.71 -1.51,1.51 -2.39,2.39l-3.85 3.85 0.22 0.22 5.48 -1.05c1.39,-0.26 2.79,-0.53 4.21,-0.8 1.41,-0.27 2.9,-0.56 4.46,-0.86l2.67 2.67c-0.74,0.75 -1.48,1.48 -2.19,2.19 -0.71,0.71 -1.51,1.51 -2.39,2.39l-4.64 4.64c-0.85,0.85 -1.63,1.63 -2.32,2.32 -0.69,0.69 -1.4,1.4 -2.14,2.14l-3.07 -3.07c0.74,-0.74 1.46,-1.46 2.15,-2.15 0.69,-0.69 1.47,-1.47 2.33,-2.33l3.96 -3.96 -0.22 -0.22 -5.51 1.03c-1.67,0.32 -3.21,0.61 -4.61,0.88 -1.4,0.26 -2.76,0.52 -4.07,0.77l-2.64 -2.64z"></path> <path class="fil1" d="M63.42 171.35c-1.11,-1.11 -1.94,-2.28 -2.49,-3.51 -0.55,-1.23 -0.82,-2.47 -0.82,-3.73 0,-1.26 0.27,-2.49 0.8,-3.69 0.54,-1.19 1.33,-2.32 2.39,-3.38 1.37,-1.37 2.87,-2.32 4.5,-2.84 1.63,-0.52 3.28,-0.57 4.93,-0.14 1.66,0.43 3.21,1.37 4.66,2.82 0.44,0.44 0.85,0.9 1.22,1.4 0.38,0.49 0.71,0.98 1.01,1.47 0.3,0.5 0.55,0.97 0.77,1.44 0.22,0.47 0.39,0.9 0.52,1.31l-3.18 2.7c-0.19,-0.81 -0.42,-1.54 -0.68,-2.19 -0.27,-0.65 -0.58,-1.23 -0.92,-1.74 -0.34,-0.51 -0.7,-0.96 -1.09,-1.34 -0.78,-0.78 -1.64,-1.3 -2.59,-1.57 -0.95,-0.26 -1.93,-0.24 -2.94,0.07 -1.01,0.31 -1.99,0.95 -2.94,1.89 -0.61,0.61 -1.09,1.27 -1.45,1.99 -0.36,0.72 -0.57,1.47 -0.63,2.24 -0.06,0.78 0.07,1.56 0.38,2.33 0.31,0.78 0.83,1.53 1.55,2.26 0.3,0.3 0.63,0.58 0.97,0.85 0.35,0.26 0.71,0.5 1.11,0.72 0.4,0.22 0.83,0.4 1.29,0.55 0.47,0.15 0.96,0.27 1.49,0.35l-2.73 3.07c-0.43,-0.13 -0.86,-0.29 -1.31,-0.51 -0.45,-0.22 -0.89,-0.47 -1.33,-0.77 -0.44,-0.29 -0.87,-0.62 -1.29,-0.97 -0.42,-0.36 -0.82,-0.72 -1.21,-1.11z"></path> <path class="fil1" d="M75.75 183.16c0.73,-0.73 1.44,-1.45 2.14,-2.14 0.69,-0.69 1.46,-1.46 2.32,-2.32l4.14 -4.14c0.88,-0.88 1.68,-1.68 2.39,-2.39 0.71,-0.71 1.44,-1.44 2.19,-2.19l-1.06 3.44 -1.81 -1.82c-0.72,-0.72 -1.36,-1.36 -1.92,-1.92 -0.56,-0.55 -1.09,-1.08 -1.59,-1.59l2.75 -2.75 11.4 11.4 -2.75 2.75c-0.5,-0.5 -1.02,-1.02 -1.58,-1.58 -0.55,-0.55 -1.19,-1.19 -1.92,-1.92l-1.81 -1.82 3.45 -1.05c-0.75,0.74 -1.48,1.47 -2.19,2.18 -0.71,0.71 -1.51,1.51 -2.39,2.39l-4.14 4.14c-0.86,0.86 -1.63,1.63 -2.32,2.32 -0.69,0.69 -1.4,1.4 -2.13,2.14l-3.15 -3.15z"></path> <path class="fil1" d="M84.64 192.04c0.98,-0.49 2,-1.01 3.08,-1.56 1.08,-0.55 2.1,-1.06 3.06,-1.56l6.24 -3.14c1.12,-0.58 2.14,-1.09 3.04,-1.55 0.9,-0.46 1.82,-0.92 2.73,-1.38l4.06 4.06c-0.48,0.95 -0.96,1.87 -1.41,2.77 -0.46,0.9 -0.96,1.9 -1.52,3l-3.18 6.22c-0.5,1.01 -1.03,2.04 -1.56,3.09 -0.54,1.06 -1.06,2.07 -1.55,3.03l-3.26 -3.26c0.52,-0.93 1.06,-1.89 1.6,-2.87 0.55,-0.98 1.06,-1.91 1.55,-2.79l4.71 -8.47 -0.23 -0.23 -8.42 4.62c-0.91,0.51 -1.87,1.03 -2.87,1.58 -1.01,0.55 -1.97,1.08 -2.9,1.59l-3.16 -3.16zm6.15 0.44l2.7 -2.02 6.11 6.11 -2.09 2.63 -6.71 -6.71z"></path> <path class="fil1" d="M100.94 208.35c0.58,-0.12 1.25,-0.26 2.02,-0.41 0.76,-0.15 1.55,-0.31 2.36,-0.47 0.81,-0.16 1.56,-0.31 2.25,-0.46l4.59 -0.9 -0.07 2.31c-0.83,-0.83 -1.43,-1.65 -1.81,-2.45 -0.38,-0.8 -0.57,-1.57 -0.57,-2.31 0,-0.74 0.16,-1.46 0.5,-2.13 0.33,-0.68 0.8,-1.31 1.39,-1.91 1.01,-1.01 2,-1.59 2.97,-1.77 0.98,-0.18 1.97,-0.01 2.99,0.51 1.02,0.53 2.08,1.35 3.19,2.46 0.66,0.66 1.32,1.32 1.98,1.98 0.66,0.66 1.28,1.28 1.87,1.87 0.58,0.58 1.08,1.08 1.49,1.49 -0.75,0.74 -1.48,1.47 -2.19,2.18 -0.71,0.71 -1.51,1.51 -2.39,2.39l-4.64 4.64c-0.86,0.86 -1.63,1.63 -2.32,2.32 -0.69,0.69 -1.41,1.4 -2.14,2.14l-3.1 -3.11 2.14 -2.14c0.69,-0.69 1.46,-1.46 2.32,-2.32l4.14 -4.14c0.89,-0.88 1.68,-1.68 2.39,-2.39 0.71,-0.71 1.44,-1.44 2.19,-2.18l-0.35 3.6 -3.75 -3.75c-0.25,-0.25 -0.51,-0.46 -0.8,-0.66 -0.28,-0.19 -0.59,-0.32 -0.92,-0.39 -0.32,-0.07 -0.67,-0.04 -1.03,0.09 -0.36,0.13 -0.73,0.39 -1.12,0.78 -0.78,0.78 -1.12,1.52 -1.01,2.23 0.1,0.71 0.54,1.44 1.3,2.2l2.35 2.35 -2.25 2.26 -3.21 -3.21 3.29 0.44 -5.67 1.28c-0.77,0.17 -1.56,0.35 -2.37,0.53 -0.8,0.18 -1.65,0.36 -2.52,0.54l-3.5 -3.5z"></path> <path class="fil1" d="M139.93 192.37c-0.5,-0.98 -1.01,-2 -1.56,-3.08 -0.55,-1.08 -1.06,-2.1 -1.56,-3.06l-3.15 -6.23c-0.57,-1.12 -1.09,-2.14 -1.54,-3.05 -0.46,-0.9 -0.92,-1.81 -1.39,-2.73l4.07 -4.07c0.95,0.48 1.87,0.96 2.77,1.41 0.89,0.45 1.9,0.96 3,1.52l6.22 3.18c1,0.51 2.04,1.03 3.09,1.57 1.05,0.54 2.07,1.05 3.03,1.55l-3.26 3.26c-0.93,-0.53 -1.89,-1.06 -2.87,-1.61 -0.98,-0.55 -1.91,-1.06 -2.79,-1.55l-8.47 -4.71 -0.23 0.23 4.62 8.42c0.5,0.91 1.03,1.87 1.58,2.87 0.55,1 1.08,1.97 1.59,2.9l-3.16 3.16zm0.44 -6.15l-2.02 -2.69 6.11 -6.11 2.63 2.08 -6.71 6.71z"></path> <path class="fil1" d="M156.71 175.58c-0.73,-0.73 -1.44,-1.44 -2.14,-2.13 -0.69,-0.7 -1.46,-1.47 -2.32,-2.33l-4.64 -4.63c-0.88,-0.89 -1.68,-1.68 -2.38,-2.39 -0.71,-0.71 -1.44,-1.44 -2.19,-2.19 0.55,-0.55 1.3,-1.3 2.23,-2.24 0.94,-0.93 2.02,-2.02 3.25,-3.24 1.11,-1.11 2.17,-1.89 3.19,-2.37 1.02,-0.47 2.03,-0.58 3.03,-0.32 1.01,0.26 2.04,0.92 3.1,1.97 0.9,0.9 1.53,1.86 1.9,2.86 0.37,1.01 0.39,2.06 0.06,3.16 -0.33,1.1 -1.09,2.24 -2.26,3.42 -0.31,0.31 -0.65,0.65 -1,1 -0.36,0.36 -0.7,0.7 -1.04,1.04 -0.34,0.34 -0.63,0.63 -0.87,0.87l-2.4 -2.4 2.2 -2.19c0.55,-0.55 0.93,-1.08 1.13,-1.57 0.21,-0.5 0.24,-0.99 0.1,-1.47 -0.14,-0.48 -0.46,-0.96 -0.95,-1.46 -0.39,-0.39 -0.77,-0.64 -1.14,-0.78 -0.36,-0.13 -0.71,-0.16 -1.05,-0.1 -0.34,0.06 -0.65,0.19 -0.94,0.37 -0.29,0.19 -0.56,0.4 -0.8,0.64l-3.66 3.66 -0.47 -3.48 2.19 2.19c0.71,0.71 1.5,1.5 2.39,2.39l4.14 4.14c0.85,0.85 1.63,1.63 2.32,2.32 0.69,0.69 1.4,1.4 2.14,2.14l-3.11 3.1z"></path> <path class="fil1" d="M171.13 161.17l-2.14 -2.14c-0.69,-0.69 -1.46,-1.46 -2.32,-2.32l-4.64 -4.64c-0.89,-0.88 -1.68,-1.68 -2.39,-2.39 -0.71,-0.71 -1.44,-1.44 -2.19,-2.19l3.14 -3.15c0.75,0.75 1.48,1.48 2.19,2.19 0.71,0.71 1.5,1.5 2.39,2.39l4.63 4.63c0.86,0.86 1.63,1.63 2.32,2.32 0.69,0.69 1.41,1.41 2.14,2.14l-3.15 3.15zm7.87 -7.87c-1.03,-0.18 -2,-0.36 -2.9,-0.51 -0.91,-0.16 -1.8,-0.32 -2.68,-0.48l-4.38 -0.78 -0.88 0.89 -2.48 -2.48 0.85 -0.85 -0.5 -3.72c-0.11,-0.88 -0.23,-1.76 -0.35,-2.63 -0.12,-0.87 -0.25,-1.88 -0.42,-3.04l3.63 -3.63c0.13,1.31 0.26,2.61 0.39,3.87 0.13,1.26 0.26,2.53 0.41,3.81l0.51 4.84 -1.44 -1.33 5.73 0.92c0.88,0.14 1.82,0.29 2.84,0.45 1.01,0.16 2,0.32 2.96,0.47 0.96,0.16 1.8,0.29 2.52,0.4l-3.8 3.8z"></path> <path class="fil1" d="M190.19 142.11c-0.74,-0.74 -1.45,-1.45 -2.14,-2.14 -0.69,-0.69 -1.46,-1.46 -2.32,-2.32l-4.14 -4.14c-0.88,-0.88 -1.68,-1.68 -2.39,-2.39 -0.71,-0.71 -1.44,-1.44 -2.18,-2.19l3.44 1.06 -1.81 1.81c-0.72,0.72 -1.36,1.36 -1.92,1.92 -0.55,0.55 -1.09,1.09 -1.59,1.59l-2.75 -2.75 11.4 -11.4 2.75 2.75c-0.5,0.5 -1.02,1.03 -1.58,1.59 -0.55,0.55 -1.19,1.19 -1.92,1.92l-1.81 1.81 -1.05 -3.45c0.74,0.74 1.47,1.48 2.18,2.19 0.71,0.71 1.51,1.5 2.39,2.39l4.14 4.14c0.86,0.86 1.63,1.63 2.32,2.32 0.69,0.69 1.4,1.41 2.14,2.14l-3.14 3.15z"></path> <path class="fil1" d="M201.31 130.98c-0.74,-0.73 -1.45,-1.44 -2.14,-2.14 -0.69,-0.69 -1.46,-1.46 -2.32,-2.32l-4.64 -4.64 -2.39 -2.39c-0.71,-0.71 -1.44,-1.44 -2.19,-2.19l3.08 -3.08c0.76,0.76 1.49,1.49 2.2,2.2 0.71,0.72 1.51,1.51 2.39,2.39l3.84 3.85 0.22 -0.22 -1.06 -5.48c-0.26,-1.38 -0.53,-2.79 -0.8,-4.2 -0.27,-1.41 -0.56,-2.9 -0.87,-4.46l2.67 -2.67c0.75,0.74 1.48,1.47 2.19,2.18 0.71,0.71 1.51,1.51 2.39,2.39l4.64 4.64c0.86,0.86 1.63,1.63 2.32,2.32 0.69,0.69 1.4,1.4 2.14,2.14l-3.08 3.08c-0.74,-0.74 -1.46,-1.46 -2.14,-2.15 -0.69,-0.69 -1.47,-1.47 -2.33,-2.33l-3.96 -3.96 -0.22 0.22 1.03 5.5c0.32,1.67 0.61,3.21 0.88,4.62 0.26,1.4 0.52,2.76 0.77,4.07l-2.64 2.64z"></path> <path class="fil1" d="M217.79 114.51l-2.14 -2.14c-0.69,-0.69 -1.46,-1.46 -2.32,-2.32l-4.64 -4.64c-0.88,-0.88 -1.68,-1.68 -2.39,-2.38 -0.71,-0.71 -1.44,-1.44 -2.19,-2.19l3.14 -3.15c0.75,0.75 1.47,1.48 2.19,2.19 0.71,0.71 1.5,1.5 2.39,2.39l4.63 4.64c0.86,0.86 1.63,1.63 2.32,2.32 0.69,0.69 1.4,1.41 2.14,2.14l-3.14 3.14zm7.87 -7.87c-1.03,-0.19 -2,-0.36 -2.9,-0.52 -0.91,-0.16 -1.8,-0.32 -2.67,-0.48l-4.39 -0.78 -0.88 0.88 -2.47 -2.47 0.84 -0.85 -0.5 -3.72c-0.12,-0.88 -0.23,-1.76 -0.35,-2.63 -0.12,-0.87 -0.26,-1.88 -0.41,-3.04l3.63 -3.63c0.13,1.31 0.26,2.61 0.39,3.87 0.13,1.26 0.27,2.53 0.41,3.81l0.51 4.84 -1.45 -1.33 5.73 0.92c0.88,0.14 1.83,0.29 2.84,0.45 1.01,0.17 2,0.33 2.96,0.48 0.96,0.15 1.8,0.29 2.52,0.39l-3.8 3.8z"></path> <path class="fil1" d="M232.79 99.51c-0.49,-0.98 -1.01,-2.01 -1.56,-3.08 -0.55,-1.08 -1.07,-2.1 -1.56,-3.06l-3.15 -6.24c-0.58,-1.12 -1.09,-2.14 -1.55,-3.04 -0.46,-0.9 -0.92,-1.81 -1.38,-2.73l4.07 -4.06c0.94,0.48 1.87,0.96 2.77,1.41 0.9,0.46 1.9,0.96 3,1.52l6.22 3.18c1,0.5 2.03,1.03 3.09,1.57 1.06,0.54 2.07,1.05 3.04,1.54l-3.26 3.26c-0.93,-0.53 -1.89,-1.06 -2.87,-1.61 -0.98,-0.55 -1.91,-1.06 -2.79,-1.55l-8.46 -4.71 -0.23 0.23 4.62 8.42c0.51,0.92 1.03,1.88 1.58,2.88 0.55,1 1.08,1.97 1.59,2.9l-3.16 3.16zm0.44 -6.15l-2.02 -2.7 6.11 -6.11 2.63 2.09 -6.71 6.71z"></path> <path class="fil1" d="M275.48 43.4c0,0 1.53,5.35 8.57,4.6l-2.92 3.54c-2.81,0.58 -4.37,-0.29 -6.23,-0.96l0.58 -7.18z"></path> <polygon class="fil1" points="265.74,57.54 269.72,63.17 266.21,66.8 259.92,61.25 "></polygon> <path class="fil1" d="M278.94 31.15l-0.39 -0.56c-1.69,0.01 -3.15,0.51 -4.34,1.18l-1.41 -0.18 -0.55 1.59c-1.08,0.96 -1.66,1.81 -1.66,1.81 -4.55,5.41 -9.95,7.19 -9.95,7.19l-6.51 2.34c-15.84,11.75 3.94,29.69 3.94,29.69l4.17 -4.03 -6.47 -11.3c4.97,0.21 9.73,-3.46 9.73,-3.46l-0.44 -4.77c1.69,3.95 3.91,7.38 6.69,10.26l2.51 -2.7c-1,-2.93 -1.71,-5.79 -1.51,-8.43l4.54 -12.43 6.19 -3.72 0.22 -2.33c-0.9,-0.6 -2.75,-0.44 -4.75,-0.15z"></path> </g> </g> </svg> 