<?xml version="1.0" encoding="UTF-8"?> <!-- Generator: Adobe Illustrator 23.0.3, SVG Export Plug-In . SVG Version: 6.00 Build 0) --> <svg xmlns="http://www.w3.org/2000/svg" xmlns:xlink="http://www.w3.org/1999/xlink" id="Слой_1" x="0px" y="0px" viewBox="0 0 300 48" style="enable-background:new 0 0 300 48;" xml:space="preserve"> <style type="text/css"> .st0{fill:#357C48;} .st1{fill:#FFFFFF;stroke:#357C48;stroke-width:2;stroke-miterlimit:10;} </style> <g> <path class="st0" d="M62.5,18.6v4.2h6.6v3.9h-6.6v6.9h-4.4V14.6h12.1v4.1H62.5z"></path> <path class="st0" d="M91.8,24.1c0,1.4-0.2,2.7-0.7,3.9c-0.5,1.2-1.1,2.2-2,3.1c-0.9,0.9-1.9,1.6-3.1,2.1c-1.2,0.5-2.5,0.8-4,0.8 c-1.5,0-2.8-0.3-4-0.8c-1.2-0.5-2.2-1.2-3.1-2.1c-0.8-0.9-1.5-1.9-1.9-3.1c-0.5-1.2-0.7-2.5-0.7-3.9c0-1.4,0.2-2.7,0.7-3.9 c0.5-1.2,1.1-2.2,2-3.1c0.9-0.9,1.9-1.6,3.1-2.1c1.2-0.5,2.6-0.8,4-0.8c1.5,0,2.8,0.3,4,0.8c1.2,0.5,2.2,1.2,3,2.1 c0.8,0.9,1.5,1.9,2,3.1C91.6,21.4,91.8,22.7,91.8,24.1z M87.1,24.1c0-0.9-0.1-1.7-0.4-2.4c-0.2-0.7-0.6-1.3-1-1.9s-1-0.9-1.6-1.2 c-0.6-0.3-1.3-0.4-2.1-0.4c-0.7,0-1.4,0.1-2.1,0.4c-0.6,0.3-1.2,0.7-1.6,1.2c-0.4,0.5-0.8,1.1-1,1.9c-0.2,0.7-0.4,1.5-0.4,2.4 c0,0.8,0.1,1.6,0.4,2.4c0.2,0.7,0.6,1.3,1,1.9c0.4,0.5,1,0.9,1.6,1.2s1.3,0.4,2.1,0.4c0.8,0,1.5-0.1,2.1-0.4 c0.6-0.3,1.1-0.7,1.6-1.2c0.4-0.5,0.8-1.2,1-1.9C87,25.7,87.1,25,87.1,24.1z"></path> <path class="st0" d="M105.4,33.6l-3.3-6.2c-0.1,0-0.3,0-0.4,0c-0.1,0-0.2,0-0.4,0c-0.3,0-0.6,0-0.8,0c-0.2,0-0.5,0-0.8,0v6.2h-4.4 V14.7c0.8-0.1,1.7-0.2,2.6-0.2c0.9-0.1,1.9-0.1,3-0.1c1.5,0,2.8,0.2,3.8,0.5s1.9,0.8,2.6,1.4c0.7,0.6,1.2,1.2,1.5,2 c0.3,0.8,0.5,1.6,0.5,2.5c0,1.1-0.3,2.2-0.9,3.2c-0.6,1-1.4,1.7-2.4,2.4l4.5,7.4H105.4z M104.6,20.9c0-0.8-0.3-1.4-0.9-1.9 c-0.6-0.4-1.3-0.7-2.3-0.7c-0.3,0-0.6,0-0.9,0c-0.2,0-0.5,0.1-0.8,0.1v5.3c0.3,0,0.5,0.1,0.7,0.1c0.2,0,0.4,0,0.7,0 c1.1,0,1.9-0.2,2.5-0.7S104.6,21.9,104.6,20.9z"></path> <path class="st0" d="M112.8,33.6V14.6h12.1v4.1h-7.6V22h7v3.8h-7v3.7h7.6v4H112.8z"></path> <path class="st0" d="M140.5,28c0,0.8-0.1,1.5-0.4,2.2c-0.3,0.7-0.7,1.3-1.3,1.9s-1.3,1-2.1,1.3c-0.8,0.3-1.8,0.5-3,0.5 c-0.5,0-1.1-0.1-1.7-0.2c-0.6-0.1-1.2-0.2-1.7-0.4c-0.6-0.2-1.1-0.4-1.6-0.6c-0.5-0.2-1-0.5-1.4-0.8l1.2-4c0.8,0.6,1.6,1,2.6,1.3 c0.9,0.3,1.9,0.5,2.8,0.5c0.8,0,1.3-0.2,1.7-0.5c0.3-0.3,0.5-0.7,0.5-1.2c0-0.2,0-0.5-0.1-0.7s-0.2-0.4-0.5-0.7 c-0.3-0.2-0.6-0.5-1-0.7c-0.4-0.2-1-0.5-1.8-0.8c-0.8-0.3-1.5-0.7-2.1-1.1s-1-0.8-1.4-1.3c-0.4-0.5-0.6-1-0.8-1.5s-0.2-1.1-0.2-1.7 c0-0.7,0.1-1.4,0.4-2c0.3-0.7,0.7-1.2,1.3-1.8s1.3-0.9,2.1-1.2s1.8-0.5,2.9-0.5c0.5,0,1,0,1.5,0.1c0.5,0.1,1,0.2,1.5,0.3 c0.5,0.1,0.9,0.3,1.3,0.5c0.4,0.2,0.7,0.4,1,0.5l-1.1,4c-0.3-0.2-0.6-0.4-0.9-0.6c-0.3-0.2-0.7-0.3-1.1-0.5s-0.7-0.3-1.1-0.4 c-0.4-0.1-0.7-0.1-1.1-0.1c-0.8,0-1.4,0.2-1.7,0.5c-0.3,0.3-0.5,0.7-0.5,1.1c0,0.3,0.1,0.6,0.2,0.8s0.3,0.4,0.6,0.6 c0.3,0.2,0.6,0.4,1.1,0.6c0.4,0.2,0.9,0.4,1.5,0.7c0.9,0.4,1.6,0.8,2.2,1.2c0.6,0.4,1.1,0.8,1.4,1.3c0.4,0.5,0.6,1,0.8,1.5 C140.5,26.8,140.5,27.4,140.5,28z"></path> <path class="st0" d="M152.3,18.6v15h-4.4v-15h-5.7v-4.1H158v4.1H152.3z"></path> <path class="st0" d="M172.6,28c0,0.8-0.1,1.5-0.4,2.2c-0.3,0.7-0.7,1.3-1.3,1.9s-1.3,1-2.1,1.3c-0.8,0.3-1.8,0.5-3,0.5 c-0.5,0-1.1-0.1-1.7-0.2c-0.6-0.1-1.2-0.2-1.7-0.4c-0.6-0.2-1.1-0.4-1.6-0.6c-0.5-0.2-1-0.5-1.4-0.8l1.2-4c0.8,0.6,1.6,1,2.6,1.3 c0.9,0.3,1.9,0.5,2.8,0.5c0.8,0,1.3-0.2,1.7-0.5c0.3-0.3,0.5-0.7,0.5-1.2c0-0.2,0-0.5-0.1-0.7s-0.2-0.4-0.5-0.7 c-0.3-0.2-0.6-0.5-1-0.7c-0.4-0.2-1-0.5-1.8-0.8c-0.8-0.3-1.5-0.7-2.1-1.1s-1-0.8-1.4-1.3c-0.4-0.5-0.6-1-0.8-1.5s-0.2-1.1-0.2-1.7 c0-0.7,0.1-1.4,0.4-2c0.3-0.7,0.7-1.2,1.3-1.8s1.3-0.9,2.1-1.2s1.8-0.5,2.9-0.5c0.5,0,1,0,1.5,0.1c0.5,0.1,1,0.2,1.5,0.3 c0.5,0.1,0.9,0.3,1.3,0.5c0.4,0.2,0.7,0.4,1,0.5l-1.1,4c-0.3-0.2-0.6-0.4-0.9-0.6c-0.3-0.2-0.7-0.3-1.1-0.5s-0.7-0.3-1.1-0.4 c-0.4-0.1-0.7-0.1-1.1-0.1c-0.8,0-1.4,0.2-1.7,0.5c-0.3,0.3-0.5,0.7-0.5,1.1c0,0.3,0.1,0.6,0.2,0.8s0.3,0.4,0.6,0.6 c0.3,0.2,0.6,0.4,1.1,0.6c0.4,0.2,0.9,0.4,1.5,0.7c0.9,0.4,1.6,0.8,2.2,1.2c0.6,0.4,1.1,0.8,1.4,1.3c0.4,0.5,0.6,1,0.8,1.5 C172.5,26.8,172.6,27.4,172.6,28z"></path> <path class="st0" d="M191.6,32.2c-0.8,0.6-1.8,1-2.9,1.3c-1.1,0.3-2.2,0.5-3.3,0.5c-1.6,0-3-0.2-4.3-0.7c-1.3-0.5-2.4-1.2-3.3-2.1 c-0.9-0.9-1.6-1.9-2.1-3.1s-0.8-2.5-0.8-3.9c0-1.4,0.3-2.7,0.8-3.9c0.5-1.2,1.2-2.2,2.1-3.1c0.9-0.9,2-1.6,3.3-2.1 c1.3-0.5,2.7-0.7,4.3-0.7c1.1,0,2.2,0.2,3.2,0.5c1,0.3,1.9,0.7,2.8,1.2l-1.4,3.7c-0.7-0.4-1.5-0.7-2.2-0.9 c-0.8-0.2-1.5-0.3-2.3-0.3c-0.9,0-1.7,0.1-2.4,0.4c-0.7,0.3-1.3,0.6-1.8,1.1c-0.5,0.5-0.9,1.1-1.1,1.8c-0.3,0.7-0.4,1.5-0.4,2.4 c0,0.9,0.1,1.7,0.4,2.4s0.7,1.3,1.1,1.8c0.5,0.5,1.1,0.9,1.8,1.1c0.7,0.3,1.5,0.4,2.4,0.4c0.8,0,1.6-0.1,2.4-0.4 c0.8-0.2,1.6-0.6,2.3-1L191.6,32.2z"></path> <path class="st0" d="M206.1,33.6l-1.4-3.5h-6.6l-1.4,3.5h-4.5l9-19.2h0.6l9,19.2H206.1z M201.4,22.2l-1.9,4.6h3.8L201.4,22.2z"></path> <path class="st0" d="M228.4,34l-11.5-10.3v10h-4.4V14.3l0.6-0.1l11.3,10.2v-9.9h4.4v19.3L228.4,34z"></path> <path class="st0" d="M248.9,34l-11.5-10.3v10H233V14.3l0.6-0.1l11.3,10.2v-9.9h4.4v19.3L248.9,34z"></path> <path class="st0" d="M253.5,33.6V14.6h12.1v4.1h-7.6V22h7v3.8h-7v3.7h7.6v4H253.5z"></path> <path class="st0" d="M279.6,33.6l-3.3-6.2c-0.1,0-0.3,0-0.4,0c-0.1,0-0.2,0-0.4,0c-0.3,0-0.6,0-0.8,0c-0.2,0-0.5,0-0.8,0v6.2h-4.4 V14.7c0.8-0.1,1.7-0.2,2.6-0.2c0.9-0.1,1.9-0.1,3-0.1c1.5,0,2.8,0.2,3.8,0.5s1.9,0.8,2.6,1.4c0.7,0.6,1.2,1.2,1.5,2 c0.3,0.8,0.5,1.6,0.5,2.5c0,1.1-0.3,2.2-0.9,3.2s-1.4,1.7-2.4,2.4l4.5,7.4H279.6z M278.8,20.9c0-0.8-0.3-1.4-0.9-1.9 c-0.6-0.4-1.3-0.7-2.3-0.7c-0.3,0-0.6,0-0.9,0c-0.2,0-0.5,0.1-0.8,0.1v5.3c0.3,0,0.5,0.1,0.7,0.1c0.2,0,0.4,0,0.7,0 c1.1,0,1.9-0.2,2.5-0.7S278.8,21.9,278.8,20.9z"></path> </g> <g> <g> <path class="st1" d="M35.4,1H12.6C6.2,1,1,6.2,1,12.6v22.7C1,41.8,6.2,47,12.6,47h22.7C41.8,47,47,41.8,47,35.4V12.6 C47,6.2,41.8,1,35.4,1z"></path> </g> </g> <path class="st0" d="M29.6,26.3c-0.7,0-1.3,0.2-1.9,0.6c-1.1-1.7-1.1-3.9,0-5.6c0.5,0.4,1.2,0.6,1.9,0.6c1.9,0,3.4-1.5,3.4-3.4 S31.5,15,29.6,15s-3.4,1.5-3.4,3.4c0,0.7,0.2,1.3,0.6,1.9c-1.7,1.1-3.9,1.1-5.6,0c0.4-0.5,0.6-1.2,0.6-1.9c0-1.9-1.5-3.4-3.4-3.4 S15,16.5,15,18.4s1.5,3.4,3.4,3.4c0.7,0,1.3-0.2,1.9-0.6c1.1,1.7,1.1,3.9,0,5.6c-0.5-0.4-1.2-0.6-1.9-0.6c-1.9,0-3.4,1.5-3.4,3.4 s1.5,3.4,3.4,3.4s3.4-1.5,3.4-3.4c0-0.7-0.2-1.3-0.6-1.9c1.7-1.1,3.9-1.1,5.6,0c-0.4,0.5-0.6,1.2-0.6,1.9c0,1.9,1.5,3.4,3.4,3.4 s3.4-1.5,3.4-3.4S31.5,26.3,29.6,26.3z M18.4,20.1c-0.9,0-1.7-0.8-1.7-1.7s0.8-1.7,1.7-1.7s1.7,0.8,1.7,1.7S19.3,20.1,18.4,20.1z M18.4,31.3c-0.9,0-1.7-0.8-1.7-1.7s0.8-1.7,1.7-1.7s1.7,0.8,1.7,1.7S19.3,31.3,18.4,31.3z M29.6,16.7c0.9,0,1.7,0.8,1.7,1.7 s-0.8,1.7-1.7,1.7s-1.7-0.8-1.7-1.7S28.7,16.7,29.6,16.7z M29.6,31.3c-0.9,0-1.7-0.8-1.7-1.7s0.8-1.7,1.7-1.7s1.7,0.8,1.7,1.7 S30.6,31.3,29.6,31.3z"></path> </svg> 